<?xml version="1.0" encoding="UTF-8" standalone="no"?>
<svg
   width="800"
   height="800"
   viewBox="0 0 72 72"
   version="1.1"
   id="svg7"
   xmlns="http://www.w3.org/2000/svg"
   xmlns:svg="http://www.w3.org/2000/svg">
  <defs
     id="defs7" />
  <path
     fill="#92d3f5"
     d="M 36.636,55.207 59.142,49.364 58.985,20.119 36.617,24.809 14.096,19.557 v 25.671 a 5.2,5.2 0 0 0 3.749,5.11 l 18.756,4.87 V 29.07"
     id="path1" />
  <path
     fill="#61b2e4"
     d="m 36.636,55.207 20.796,-5.399 a 2.28,2.28 0 0 0 1.71,-2.21 V 22.434 A 2.283,2.283 0 0 0 56.34,20.211 l -19.723,4.598"
     id="path2" />
  <path
     fill="#ffffff"
     d="M 36.619,43.993 36.35,54.73 30.832,53.977 14.415,32.99 V 20.119 l 3.045,0.288 z"
     id="path3" />
  <path
     fill="#92d3f5"
     d="m 14.096,19.557 22.718,-5.87 21.79,6.463"
     id="path4" />
  <path
     fill="#92d3f5"
     d="m 58.037,19.815 -21.59,5.27 -22.374,-5.667"
     id="path5" />
  <g
     fill="none"
     stroke="#000000"
     stroke-linecap="round"
     stroke-linejoin="round"
     stroke-width="2.069"
     id="g7">
    <path
       stroke-width="2.13256"
       d="m 36.601,29.07 v 23.34 a 2.164,2.164 0 0 1 -2.708,2.094 L 32.714,54.198 32.544,54.154 17.584,50.27 A 4.84,4.84 0 0 1 14.096,45.516 V 22.283 a 2.164,2.164 0 0 1 2.655,-2.107 l 18.266,4.259 a 7.05,7.05 0 0 0 3.2,0 l 18.27,-4.26 a 2.164,2.164 0 0 1 2.655,2.108 v 25.408 a 2.165,2.165 0 0 1 -1.62,2.094 l -20.176,5.238 a 3.06,3.06 0 0 1 -1.427,0.027 l -2.026,-0.545"
       id="path6" />
    <path
       stroke-width="2.13256"
       d="m 14.074,24.1 0.017,-3.533 a 1.31,1.31 0 0 1 0.983,-1.263 l 19.701,-5.09 a 7.3,7.3 0 0 1 4.047,0.112 l 19.095,5.168 a 1.66,1.66 0 0 1 1.225,1.6 v 2.747"
       id="path7" />
  </g>
</svg>
